<svg width="200" height="200" viewBox="0 0 200 200" fill="none" xmlns="http://www.w3.org/2000/svg">
  <!-- Gradient background -->
  <defs>
    <linearGradient id="grad1" x1="0%" y1="0%" x2="100%" y2="100%">
      <stop offset="0%" style="stop-color:#ef4444;stop-opacity:1" />
      <stop offset="100%" style="stop-color:#dc2626;stop-opacity:1" />
    </linearGradient>
    <linearGradient id="sparkle" x1="0%" y1="0%" x2="100%" y2="0%">
      <stop offset="0%" style="stop-color:#fbbf24;stop-opacity:1" />
      <stop offset="50%" style="stop-color:#fef3c7;stop-opacity:1" />
      <stop offset="100%" style="stop-color:#fbbf24;stop-opacity:1" />
    </linearGradient>
  </defs>

  <!-- Main circle background -->
  <circle cx="100" cy="100" r="90" fill="url(#grad1)"/>

  <!-- AI text styled as tech logo -->
  <text x="100" y="125" font-family="Arial, sans-serif" font-size="80" font-weight="bold" text-anchor="middle" fill="white">AI</text>

  <!-- Sparkle/star accent top left -->
  <path d="M 50 40 L 54 48 L 62 48 L 56 54 L 58 62 L 50 58 L 42 62 L 44 54 L 38 48 L 46 48 Z" fill="url(#sparkle)"/>

  <!-- Sparkle/star accent top right -->
  <path d="M 150 35 L 153 41 L 159 41 L 154 45 L 156 51 L 150 48 L 144 51 L 146 45 L 141 41 L 147 41 Z" fill="url(#sparkle)"/>

  <!-- Small sparkle bottom right -->
  <path d="M 155 150 L 157 154 L 161 154 L 158 157 L 159 161 L 155 159 L 151 161 L 152 157 L 149 154 L 153 154 Z" fill="url(#sparkle)"/>
</svg>
